<svg xmlns="http://www.w3.org/2000/svg" viewBox="0 0 24 24" fill="#007aff"><path d="M20.01 15.38c-1.23 0-2.42-.2-3.53-.56-.35-.12-.74-.03-1.01.24l-1.57 1.97c-2.83-1.35-5.48-3.9-6.89-6.83l1.95-1.66c.27-.28.35-.67.24-1.02-.37-1.11-.56-2.3-.56-3.53V3.99c0-.55-.45-1-1-1H4.01c-.55 0-1 .45-1 1v1.01c0 4.41 3.59 8 8 8 .34 0 .67-.04 1-.11.16.53.45 1.02.85 1.44.47.5 1 .73 1.63.73h1.01c.55 0 1 .45 1 1v1.01c0 1.27-.52 2.43-1.37 3.29-.88.88-2.04 1.42-3.28 1.42h-.26c-.55 0-1 .45-1 1v.91c0 .55.45 1 1 1h4.59c.55 0 1-.45 1-1v-.91c0-.82-.4-1.54-1.01-1.97-.63-.45-1.07-.67-1.75-.67-.55 0-1 .45-1 1v.91c0 .55.45 1 1 1h3.93c.55 0 1-.45 1-1v-.91c0-.55-.45-1-1-1-.82 0-1.54.4-1.97 1.01-.45.63-.67 1.07-.67 1.75 0 .55.45 1 1 1v.91c0 .82.4 1.54 1.01 1.97 1.44 1.01 2.96 2.11 4.87 2.11V18c0 .55.45 1 1 1h1.01c.55 0 1-.45 1-1v-.06c1.14-.48 2.16-1.23 2.98-2.22l.57-.7c.37-.47.52-.78.52-1.39V5.39c0-.55-.45-1-1-1h-.01c-.55 0-1 .45-1 1v1.53c0 .67-.14 1.15-.34 1.5-.2.34-.42.6-.72.83-.61.47-1.34.79-2.17.96V9c0 .55.45 1 1 1h1.01z"/></svg>